<?xml version="1.0" standalone="no"?>
<!DOCTYPE svg PUBLIC "-//W3C//DTD SVG 20010904//EN"
 "http://www.w3.org/TR/2001/REC-SVG-20010904/DTD/svg10.dtd">
<svg version="1.0" xmlns="http://www.w3.org/2000/svg"
 width="512.000000pt" height="512.000000pt" viewBox="0 0 512.000000 512.000000"
 preserveAspectRatio="xMidYMid meet">
<metadata>
Created by potrace 1.11, written by Peter Selinger 2001-2013
</metadata>
<g transform="translate(0.000000,512.000000) scale(0.100000,-0.100000)"
fill="#000000" stroke="none">
<path d="M0 2560 l0 -2560 510 0 510 0 0 930 c0 875 -1 930 -17 930 -10 0 -51
-11 -93 -25 -121 -39 -299 -95 -305 -95 -3 0 -4 140 -3 311 l3 311 195 62
c107 33 201 65 208 69 9 6 12 206 12 943 l0 934 1755 0 1755 0 0 -320 0 -320
-1440 0 -1439 0 -3 -522 c-2 -288 0 -527 5 -533 7 -9 78 6 252 54 109 30 261
70 360 96 50 13 117 31 150 40 33 9 92 25 130 35 39 10 113 29 165 43 52 14
138 37 190 50 52 14 140 38 195 52 152 42 354 95 415 110 30 8 63 17 73 20 16
7 17 -12 17 -309 0 -174 -2 -316 -5 -316 -3 0 -39 -9 -80 -20 -41 -11 -108
-29 -148 -39 -40 -11 -118 -32 -172 -46 -55 -15 -156 -41 -225 -60 -69 -18
-177 -46 -240 -63 -116 -31 -183 -49 -365 -98 -138 -37 -489 -129 -612 -161
l-103 -27 0 -1018 0 -1018 1735 0 1735 0 0 2560 0 2560 -2560 0 -2560 0 0
-2560z"/>
<path d="M1260 3349 c0 -783 0 -790 20 -784 11 3 46 17 77 30 l58 23 3 761 2
761 -80 0 -80 0 0 -791z"/>
<path d="M1650 4061 c0 -45 5 -83 11 -86 5 -4 287 -4 625 1 l614 7 0 78 0 79
-625 0 -625 0 0 -79z"/>
<path d="M1303 1973 l-43 -4 0 -600 0 -599 80 0 80 0 -2 603 -3 602 -35 1
c-19 1 -54 -1 -77 -3z"/>
</g>
</svg>
