<svg version="1" xmlns="http://www.w3.org/2000/svg" width="682.667" height="682.667" viewBox="0 0 512.000000 512.000000"><path d="M0 256v256h101v-92.5c0-50.9-.3-92.5-.6-92.5-.4 0-9.4 2.7-20.1 6-10.8 3.3-19.9 6-20.4 6s-.9-14.2-.9-31.9v-32l2.2-.6c13.4-4 37.6-12 38.6-12.7.9-.8 1.2-20.9 1.2-94.4V74l176.5.2 176.6.3v31.7c0 17.5-.1 32.2-.1 32.8 0 .7-48.7 1-144 1H166v52c0 28.6.3 52 .8 52 1 0 15.7-3.8 42.7-11 12.7-3.4 27.7-7.4 33.5-9 16.1-4.2 71.9-19 77.5-20.5 2.8-.8 10.2-2.7 16.5-4.4 6.3-1.6 13.8-3.7 16.5-4.5 2.8-.9 5.6-1.6 6.3-1.6.9 0 1.2 7 1.2 31.9 0 18.4-.4 32.2-.9 32.5-.5.4-10.1 3.1-21.3 6-11.2 3-23.7 6.3-27.8 7.5-4.1 1.1-12.9 3.4-19.5 5.1-11.7 3.1-16.4 4.3-48.5 12.9-8.5 2.2-19.1 5-23.5 6.2-4.4 1.2-11.1 3-15 4-15.9 4.2-33.2 8.8-35.7 9.3l-2.8.6v203h346V0H0v256z"/><path d="M126.7 99.7c-1 .9-.9 154.1.1 154.7.4.2 3.7-.8 7.2-2.3l6.5-2.7.3-75.2.2-75.2h-6.8c-3.8 0-7.2.3-7.5.7zM166.4 100.4c-.3.7-.4 4-.2 7.2l.3 5.9h14.8c8.1 0 35.6-.1 61.2-.3l46.5-.2V99h-61c-50.6 0-61.2.2-61.6 1.4zM129.2 315.7l-3.2.4.2 58.7.3 58.7 7.3.3 7.2.3V315l-4.2.2c-2.4 0-5.8.3-7.6.5z"/></svg>